<svg xmlns="http://www.w3.org/2000/svg" width="500" height="400" viewBox="0 0 500 400">
  <rect x="0" y="0" width="500" height="400" fill="#FFFFFF"/>
  <text x="250" y="25" font-size="18" fill="#2C3E50" text-anchor="middle">Device Usage Distribution</text>
  <path d="M250,215 L250.0,75.0 A140,140 0 0,1 293.3,348.1 Z" fill="#3498DB" stroke="#FFFFFF" stroke-width="2"/>
  <text x="339.8796389941575" y="204.76446368133898" font-size="10" fill="#FFFFFF" text-anchor="middle">Desktop 45.0%</text>
  <path d="M250,215 L293.3,348.1 A140,140 0 0,1 110.0,215.0 Z" fill="#E74C3C" stroke="#FFFFFF" stroke-width="2"/>
  <text x="196.51154204138496" y="292.6205464881202" font-size="10" fill="#FFFFFF" text-anchor="middle">Mobile 30.0%</text>
  <path d="M250,215 L110.0,215.0 A140,140 0 0,1 167.7,101.7 Z" fill="#2ECC71" stroke="#FFFFFF" stroke-width="2"/>
  <text x="168.91840629885854" y="177.68686452370125" font-size="10" fill="#FFFFFF" text-anchor="middle">Tablet 15.0%</text>
  <path d="M250,215 L167.7,101.7 A140,140 0 0,1 250.0,75.0 Z" fill="#F39C12" stroke="#FFFFFF" stroke-width="2"/>
  <text x="221.87945351187977" y="132.45385701714105" font-size="10" fill="#FFFFFF" text-anchor="middle">Other 10.0%</text>
  <rect x="90" y="367" width="12" height="12" fill="#3498DB"/>
  <text x="106" y="377" font-size="10" fill="#2C3E50" text-anchor="middle">Desktop</text>
  <rect x="170" y="367" width="12" height="12" fill="#E74C3C"/>
  <text x="186" y="377" font-size="10" fill="#2C3E50" text-anchor="middle">Mobile</text>
  <rect x="250" y="367" width="12" height="12" fill="#2ECC71"/>
  <text x="266" y="377" font-size="10" fill="#2C3E50" text-anchor="middle">Tablet</text>
  <rect x="330" y="367" width="12" height="12" fill="#F39C12"/>
  <text x="346" y="377" font-size="10" fill="#2C3E50" text-anchor="middle">Other</text>
</svg>