<svg xmlns="http://www.w3.org/2000/svg" width="600" height="400" viewBox="0 0 600 400">
  <rect x="0" y="0" width="600" height="400" fill="#FFFFFF"/>
  <text x="300" y="30" font-size="18" fill="#2C3E50" text-anchor="middle">Monthly Sales vs Costs</text>
  <line x1="60" y1="340.0" x2="570" y2="340.0" stroke="#E0E0E0" stroke-width="1"/>
  <text x="52" y="344.0" font-size="10" fill="#7F8C8D" text-anchor="middle">0</text>
  <line x1="60" y1="282.0" x2="570" y2="282.0" stroke="#E0E0E0" stroke-width="1"/>
  <text x="52" y="286.0" font-size="10" fill="#7F8C8D" text-anchor="middle">68</text>
  <line x1="60" y1="224.0" x2="570" y2="224.0" stroke="#E0E0E0" stroke-width="1"/>
  <text x="52" y="228.0" font-size="10" fill="#7F8C8D" text-anchor="middle">136</text>
  <line x1="60" y1="166.0" x2="570" y2="166.0" stroke="#E0E0E0" stroke-width="1"/>
  <text x="52" y="170.0" font-size="10" fill="#7F8C8D" text-anchor="middle">205</text>
  <line x1="60" y1="108.0" x2="570" y2="108.0" stroke="#E0E0E0" stroke-width="1"/>
  <text x="52" y="112.0" font-size="10" fill="#7F8C8D" text-anchor="middle">273</text>
  <line x1="60" y1="50.0" x2="570" y2="50.0" stroke="#E0E0E0" stroke-width="1"/>
  <text x="52" y="54.0" font-size="10" fill="#7F8C8D" text-anchor="middle">341</text>
  <line x1="60" y1="50" x2="60" y2="340" stroke="#BDC3C7" stroke-width="1"/>
  <line x1="60" y1="340" x2="570" y2="340" stroke="#BDC3C7" stroke-width="1"/>
  <text x="60.0" y="360" font-size="10" fill="#7F8C8D" text-anchor="middle">Jan</text>
  <text x="162.0" y="360" font-size="10" fill="#7F8C8D" text-anchor="middle">Feb</text>
  <text x="264.0" y="360" font-size="10" fill="#7F8C8D" text-anchor="middle">Mar</text>
  <text x="366.0" y="360" font-size="10" fill="#7F8C8D" text-anchor="middle">Apr</text>
  <text x="468.0" y="360" font-size="10" fill="#7F8C8D" text-anchor="middle">May</text>
  <text x="570.0" y="360" font-size="10" fill="#7F8C8D" text-anchor="middle">Jun</text>
  <path d="M60.0,237.9 L162.0,169.9 L264.0,212.4 L366.0,101.9 L468.0,144.4 L570.0,76.4" fill="none" stroke="#3498DB" stroke-width="2"/>
  <circle cx="60.0" cy="237.94721407624633" r="4" fill="#3498DB" stroke="#FFFFFF" stroke-width="2"/>
  <circle cx="162.0" cy="169.91202346041055" r="4" fill="#3498DB" stroke="#FFFFFF" stroke-width="2"/>
  <circle cx="264.0" cy="212.43401759530792" r="4" fill="#3498DB" stroke="#FFFFFF" stroke-width="2"/>
  <circle cx="366.0" cy="101.87683284457478" r="4" fill="#3498DB" stroke="#FFFFFF" stroke-width="2"/>
  <circle cx="468.0" cy="144.39882697947215" r="4" fill="#3498DB" stroke="#FFFFFF" stroke-width="2"/>
  <circle cx="570.0" cy="76.36363636363637" r="4" fill="#3498DB" stroke="#FFFFFF" stroke-width="2"/>
  <path d="M60.0,272.0 L162.0,237.9 L264.0,255.0 L366.0,212.4 L468.0,229.4 L570.0,186.9" fill="none" stroke="#E74C3C" stroke-width="2"/>
  <circle cx="60.0" cy="271.9648093841642" r="4" fill="#E74C3C" stroke="#FFFFFF" stroke-width="2"/>
  <circle cx="162.0" cy="237.94721407624633" r="4" fill="#E74C3C" stroke="#FFFFFF" stroke-width="2"/>
  <circle cx="264.0" cy="254.95601173020526" r="4" fill="#E74C3C" stroke="#FFFFFF" stroke-width="2"/>
  <circle cx="366.0" cy="212.43401759530792" r="4" fill="#E74C3C" stroke="#FFFFFF" stroke-width="2"/>
  <circle cx="468.0" cy="229.44281524926686" r="4" fill="#E74C3C" stroke="#FFFFFF" stroke-width="2"/>
  <circle cx="570.0" cy="186.92082111436952" r="4" fill="#E74C3C" stroke="#FFFFFF" stroke-width="2"/>
  <line x1="390" y1="65" x2="410" y2="65" stroke="#3498DB" stroke-width="3"/>
  <text x="415" y="69" font-size="10" fill="#2C3E50" text-anchor="middle">Sales</text>
  <line x1="480" y1="65" x2="500" y2="65" stroke="#E74C3C" stroke-width="3"/>
  <text x="505" y="69" font-size="10" fill="#2C3E50" text-anchor="middle">Costs</text>
</svg>